<?xml version="1.0" encoding="utf-8"?>
<!-- Generator: Adobe Illustrator 25.4.1, SVG Export Plug-In . SVG Version: 6.00 Build 0)  -->
<svg version="1.1" id="Layer_1" xmlns="http://www.w3.org/2000/svg" xmlns:xlink="http://www.w3.org/1999/xlink" x="0px" y="0px"
	 viewBox="0 0 412.49 418.6" style="enable-background:new 0 0 412.49 418.6;" xml:space="preserve">
<style type="text/css">
	.st0{fill:#272554;}
	.st1{fill:none;}
	.st2{fill:#33A8E0;}
</style>
<g>
	<polygon class="st0" points="409.57,319.53 366.2,276.16 311.15,331.21 206.25,226.31 101.35,331.21 46.79,276.65 3.06,320.38 
		101.27,418.6 206.25,313.62 262.61,369.99 311.15,418.53 	"/>
	<g>
		<polygon class="st1" points="206.25,91.53 94.29,203.5 104.64,213.85 206.25,112.24 307.86,213.85 318.21,203.5 		"/>
		<path class="st2" d="M206.25,0L0,206.25l101.37,101.37l104.88-104.88l104.88,104.88l101.37-101.37L206.25,0z M307.86,213.85
			L206.25,112.24L104.64,213.85L94.29,203.5L206.25,91.53L318.21,203.5L307.86,213.85z"/>
	</g>
</g>
</svg>
